<?xml version="1.0" encoding="UTF-8" standalone="no"?>
<!-- Created with Inkscape (http://www.inkscape.org/) -->

<svg
   width="175mm"
   height="169mm"
   viewBox="0 0 175 169"
   version="1.1"
   id="svg5"
   xml:space="preserve"
   xmlns="http://www.w3.org/2000/svg"
   xmlns:svg="http://www.w3.org/2000/svg"><defs
     id="defs2"><filter
       style="color-interpolation-filters:sRGB"
       id="filter4470"
       x="-0.18980449"
       y="-0.2018697"
       width="1.379609"
       height="1.4037395"><feGaussianBlur
         stdDeviation="10.676871"
         id="feGaussianBlur4472" /></filter><filter
       style="color-interpolation-filters:sRGB"
       id="filter4478"
       x="-0.018535595"
       y="-0.019713838"
       width="1.0370712"
       height="1.0394278"><feGaussianBlur
         stdDeviation="1.0426632"
         id="feGaussianBlur4480" /></filter></defs><g
     id="layer1"
     transform="translate(-35.000001,-30.000001)"><path
       style="fill:#b00909;fill-opacity:1;stroke-width:0.498034;filter:url(#filter4470)"
       d="m 113.98159,178.93891 c -2.40199,-0.25199 -6.40603,-1.00713 -8.89787,-1.67806 -2.49184,-0.67095 -6.191143,-1.84199 -8.220686,-2.60232 -2.029542,-0.76033 -5.192921,-2.18256 -7.029732,-3.16049 -1.83681,-0.97794 -5.138009,-2.99395 -7.335997,-4.48002 -2.197988,-1.48608 -6.020663,-4.67213 -8.494834,-7.08011 -2.474172,-2.40798 -5.80097,-6.2247 -7.392886,-8.48159 -1.591916,-2.2569 -3.812114,-5.84138 -4.933772,-7.96552 -1.12166,-2.12414 -2.734093,-5.92586 -3.583186,-8.44828 -0.849093,-2.52241 -1.848719,-6.21551 -2.221391,-8.20689 -0.380903,-2.03536 -0.668055,-7.00274 -0.655818,-11.34483 0.01197,-4.24828 0.302308,-9.13621 0.645191,-10.86207 0.342882,-1.72586 1.329528,-5.310337 2.192546,-7.965512 0.863017,-2.65517 2.588306,-6.74087 3.833974,-9.07932 1.245667,-2.33846 3.454861,-5.92294 4.909319,-7.96552 1.454459,-2.04257 5.094092,-6.01543 8.088076,-8.82857 2.993983,-2.81314 7.22224,-6.232926 9.396126,-7.599536 2.173886,-1.3666 5.9888,-3.44235 8.477586,-4.61278 2.488787,-1.17043 6.837141,-2.7915 9.662994,-3.60239 2.82586,-0.81089 6.64078,-1.73794 8.47759,-2.06011 1.83682,-0.32217 7.03898,-0.59497 11.56035,-0.60622 4.62123,-0.0115 9.90794,0.25831 12.07414,0.6162 2.1194,0.35016 6.04992,1.28875 8.73449,2.08575 2.68456,0.79701 6.95192,2.42069 9.48301,3.60819 2.53109,1.18751 6.34601,3.28155 8.47759,4.65343 2.13158,1.37188 6.00162,4.41563 8.60009,6.763876 2.59847,2.34826 6.18218,6.20807 7.9638,8.57737 1.78161,2.3693 4.22535,6.09627 5.43053,8.28217 1.20518,2.1859 2.99172,6.29026 3.9701,9.12081 0.97838,2.83055 2.06111,6.740892 2.40607,8.689652 0.34495,1.94876 0.62426,7.01906 0.62068,11.26734 -0.004,4.24827 -0.29115,9.13621 -0.63904,10.86207 -0.34789,1.72586 -1.33933,5.31034 -2.20321,7.96551 -0.86387,2.65518 -2.49088,6.56552 -3.61558,8.68966 -1.12469,2.12414 -3.34738,5.70862 -4.93929,7.96552 -1.59192,2.25689 -4.94697,6.10105 -7.45567,8.54257 -2.50869,2.44151 -6.62364,5.80875 -9.14431,7.48275 -2.52068,1.674 -6.48725,3.96377 -8.8146,5.08837 -2.32735,1.1246 -6.42802,2.71838 -9.11259,3.54173 -2.68457,0.82335 -6.61508,1.8135 -8.73448,2.20034 -2.1194,0.38684 -6.85914,0.78922 -10.53276,0.89417 -3.67362,0.10496 -8.64457,-0.0153 -11.04655,-0.26734 z m 16.67294,-26.274 c 2.81193,-0.92302 5.38356,-1.95273 5.71474,-2.28823 0.33118,-0.33551 0.74629,-1.33897 0.92247,-2.22991 0.27977,-1.41485 0.20676,-1.57312 -0.57681,-1.2504 -0.49343,0.20322 -2.57526,0.46721 -4.62629,0.58665 -2.8519,0.16607 -4.0247,0.0352 -4.98547,-0.55629 -0.77315,-0.47599 -1.39005,-1.44324 -1.60404,-2.51502 -0.19125,-0.95786 -0.0784,-3.2739 0.25078,-5.14675 0.32918,-1.87285 1.42023,-6.03303 2.42456,-9.24484 1.00433,-3.21182 2.22974,-7.36035 2.72313,-9.21898 0.49339,-1.85862 0.94666,-4.7184 1.00725,-6.35507 0.0686,-1.85269 -0.19951,-3.67217 -0.71038,-4.821 -0.4513,-1.01487 -1.32973,-2.35813 -1.95206,-2.98501 -0.62233,-0.62687 -1.95778,-1.53799 -2.96767,-2.02471 -1.00989,-0.48672 -3.24433,-1.03463 -4.96542,-1.21759 -2.21545,-0.23551 -4.30491,-0.0882 -7.15522,0.50446 -2.21428,0.46041 -5.4597,1.37418 -7.21205,2.03059 -2.74053,1.02658 -3.26859,1.42843 -3.7762,2.8736 -0.32458,0.92406 -0.47317,1.79002 -0.33022,1.92434 0.14297,0.13432 1.14864,0.0124 2.23484,-0.27103 1.08619,-0.28339 2.94665,-0.51647 4.13435,-0.51795 1.18769,-0.001 2.73683,0.24449 3.44253,0.54661 0.7057,0.30211 1.52581,1.2035 1.82245,2.00307 0.29666,0.79957 0.53937,2.03197 0.53937,2.73866 0,0.70668 -0.67743,3.76995 -1.50539,6.80726 -0.82797,3.03732 -2.23205,7.80343 -3.12016,10.59136 -1.09849,3.44833 -1.70538,6.54435 -1.89823,9.68361 -0.23277,3.78945 -0.12429,4.91171 0.60666,6.27586 0.48957,0.91367 1.38538,2.05148 1.99069,2.52846 0.60531,0.47698 1.62658,1.21157 2.26948,1.63241 0.6429,0.42085 1.91453,0.93162 2.82586,1.13507 0.91132,0.20344 3.39101,0.38994 5.5104,0.41444 3.15488,0.0365 4.78028,-0.25968 8.96605,-1.63367 z m 2.70295,-59.189042 c 1.22725,-0.55821 2.82614,-1.74763 3.55309,-2.64315 0.72696,-0.89551 1.50555,-2.39396 1.7302,-3.32989 0.22466,-0.93592 0.22328,-2.47317 -0.003,-3.4161 -0.22634,-0.94294 -0.94945,-2.45205 -1.6069,-3.35359 -0.65746,-0.90153 -2.09147,-2.11237 -3.1867,-2.69074 -1.46194,-0.77204 -2.85467,-1.05159 -5.23906,-1.05159 -2.45821,0 -3.6964,0.26052 -5.09316,1.07163 -1.01496,0.58939 -2.44702,1.81276 -3.18235,2.71859 -0.78293,0.96447 -1.44196,2.52223 -1.59033,3.75907 -0.13936,1.16164 0.0228,2.89839 0.36038,3.85944 0.33757,0.96104 1.33932,2.42909 2.22612,3.26233 0.88681,0.83323 2.31385,1.80211 3.1712,2.15306 0.85736,0.35095 2.69967,0.64659 4.09404,0.65698 1.5624,0.0116 3.39139,-0.37054 4.76655,-0.99604 z"
       id="path4466" /><path
       style="fill:#000000;stroke-width:0.498034;filter:url(#filter4478)"
       d="m 113.62674,177.8744 c -2.40199,-0.25199 -6.40603,-1.00713 -8.89787,-1.67806 -2.49184,-0.67095 -6.191133,-1.84199 -8.220673,-2.60232 -2.02954,-0.76033 -5.19292,-2.18256 -7.02973,-3.16049 -1.83681,-0.97794 -5.13801,-2.99395 -7.336,-4.48002 -2.19799,-1.48608 -6.02066,-4.67213 -8.49483,-7.08011 -2.47418,-2.40798 -5.80097,-6.2247 -7.39289,-8.48159 -1.59192,-2.2569 -3.81211,-5.84138 -4.93377,-7.96552 -1.12166,-2.12414 -2.7341,-5.92586 -3.58319,-8.44828 -0.84909,-2.52241 -1.84872,-6.21551 -2.22139,-8.20689 -0.3809,-2.03536 -0.66805,-7.00274 -0.65582,-11.34483 0.012,-4.24828 0.30231,-9.13621 0.64519,-10.86207 0.34289,-1.72586 1.32953,-5.310342 2.19255,-7.965512 0.86302,-2.65517 2.58831,-6.74087 3.83397,-9.079323 1.24567,-2.33846 3.45486,-5.92294 4.90932,-7.96552 1.45446,-2.04257 5.09409,-6.01543 8.08808,-8.82857 2.99398,-2.81314 7.22224,-6.23293 9.39612,-7.59954 2.17389,-1.3666 5.9888,-3.44235 8.47759,-4.61278 2.48879,-1.17043 6.83714,-2.7915 9.662983,-3.60239 2.82586,-0.81089 6.64078,-1.73794 8.47759,-2.06011 1.83682,-0.32217 7.03898,-0.59497 11.56035,-0.60622 4.62123,-0.0115 9.90794,0.25831 12.07414,0.6162 2.1194,0.35016 6.04992,1.28875 8.73449,2.08575 2.68456,0.79701 6.95192,2.42069 9.48301,3.60819 2.53109,1.18751 6.34601,3.28155 8.47759,4.65343 2.13158,1.37188 6.00162,4.41563 8.60009,6.76388 2.59847,2.34826 6.18218,6.20807 7.9638,8.57737 1.78161,2.3693 4.22535,6.09627 5.43053,8.28217 1.20518,2.185903 2.99172,6.290263 3.9701,9.120813 0.97838,2.83055 2.06111,6.740892 2.40607,8.689652 0.34495,1.94876 0.62426,7.01906 0.62068,11.26734 -0.004,4.24827 -0.29115,9.13621 -0.63904,10.86207 -0.34789,1.72586 -1.33933,5.31034 -2.20321,7.96551 -0.86387,2.65518 -2.49088,6.56552 -3.61558,8.68966 -1.12469,2.12414 -3.34738,5.70862 -4.93929,7.96552 -1.59192,2.25689 -4.94697,6.10105 -7.45567,8.54257 -2.50869,2.44151 -6.62364,5.80875 -9.14431,7.48275 -2.52068,1.674 -6.48725,3.96377 -8.8146,5.08837 -2.32735,1.1246 -6.42802,2.71838 -9.11259,3.54173 -2.68457,0.82335 -6.61508,1.8135 -8.73448,2.20034 -2.1194,0.38684 -6.85914,0.78922 -10.53276,0.89417 -3.67362,0.10496 -8.64457,-0.0153 -11.04655,-0.26734 z m 16.67294,-26.274 c 2.81193,-0.92302 5.38356,-1.95273 5.71474,-2.28823 0.33118,-0.33551 0.74629,-1.33897 0.92247,-2.22991 0.27977,-1.41485 0.20676,-1.57312 -0.57681,-1.2504 -0.49343,0.20322 -2.57526,0.46721 -4.62629,0.58665 -2.8519,0.16607 -4.0247,0.0352 -4.98547,-0.55629 -0.77315,-0.47599 -1.39005,-1.44324 -1.60404,-2.51502 -0.19125,-0.95786 -0.0784,-3.2739 0.25078,-5.14675 0.32918,-1.87285 1.42023,-6.03303 2.42456,-9.24484 1.00433,-3.21182 2.22974,-7.36035 2.72313,-9.21898 0.49339,-1.85862 0.94666,-4.7184 1.00725,-6.35507 0.0686,-1.85269 -0.19951,-3.67217 -0.71038,-4.821 -0.4513,-1.01487 -1.32973,-2.35813 -1.95206,-2.98501 -0.62233,-0.62687 -1.95778,-1.53799 -2.96767,-2.02471 -1.00989,-0.48672 -3.24433,-1.03463 -4.96542,-1.21759 -2.21545,-0.23551 -4.30491,-0.0882 -7.15522,0.50446 -2.21428,0.46041 -5.4597,1.37418 -7.21205,2.03059 -2.74053,1.02658 -3.26859,1.42843 -3.7762,2.8736 -0.32458,0.92406 -0.47317,1.79002 -0.33022,1.92434 0.14297,0.13432 1.14864,0.0124 2.23484,-0.27103 1.08619,-0.28339 2.94665,-0.51647 4.13435,-0.51795 1.18769,-0.001 2.73683,0.24449 3.44253,0.54661 0.7057,0.30211 1.52581,1.2035 1.82245,2.00307 0.29666,0.79957 0.53937,2.03197 0.53937,2.73866 0,0.70668 -0.67743,3.76995 -1.50539,6.80726 -0.82797,3.03732 -2.23205,7.80343 -3.12016,10.59136 -1.09849,3.44833 -1.70538,6.54435 -1.89823,9.68361 -0.23277,3.78945 -0.12429,4.91171 0.60666,6.27586 0.48957,0.91367 1.38538,2.05148 1.99069,2.52846 0.60531,0.47698 1.62658,1.21157 2.26948,1.63241 0.6429,0.42085 1.91453,0.93162 2.82586,1.13507 0.91132,0.20344 3.39101,0.38994 5.5104,0.41444 3.15488,0.0365 4.78028,-0.25968 8.96605,-1.63367 z m 2.70295,-59.189042 c 1.22725,-0.55821 2.82614,-1.74763 3.55309,-2.64315 0.72696,-0.89551 1.50555,-2.39396 1.7302,-3.329893 0.22466,-0.93592 0.22328,-2.47317 -0.003,-3.4161 -0.22634,-0.94294 -0.94945,-2.45205 -1.6069,-3.35359 -0.65746,-0.90153 -2.09147,-2.11237 -3.1867,-2.69074 -1.46194,-0.77204 -2.85467,-1.05159 -5.23906,-1.05159 -2.45821,0 -3.6964,0.26052 -5.09316,1.07163 -1.01496,0.58939 -2.44702,1.81276 -3.18235,2.71859 -0.78293,0.96447 -1.44196,2.52223 -1.59033,3.75907 -0.13936,1.16164 0.0228,2.89839 0.36038,3.859443 0.33757,0.96104 1.33932,2.42909 2.22612,3.26233 0.88681,0.83323 2.31385,1.80211 3.1712,2.15306 0.85736,0.35095 2.69967,0.64659 4.09404,0.65698 1.5624,0.0116 3.39139,-0.37054 4.76655,-0.99604 z"
       id="path4468" /></g></svg>
